<svg width="15" height="15" viewBox="0 0 15 15" fill="none" xmlns="http://www.w3.org/2000/svg">
<path fill-rule="evenodd" clip-rule="evenodd" d="M15 7.5C15 11.6421 11.6421 15 7.50003 15C3.35787 15 0 11.6421 0 7.5C0 3.35786 3.35787 0 7.50003 0C11.6421 0 15 3.35786 15 7.5ZM9.30184 4.71347C10.3452 5.07175 11.1083 5.60817 10.9586 6.60651C10.8498 7.33758 10.443 7.69116 9.9026 7.81494C10.6441 8.19949 10.8968 8.92926 10.662 9.81163C10.2162 11.0815 9.15638 11.1884 7.74682 10.923L7.40456 12.288L6.57832 12.0826L6.91587 10.7359C6.70169 10.6829 6.48275 10.6262 6.25722 10.5657L5.91827 11.919L5.09295 11.7136L5.43474 10.3457L3.7705 9.92746L4.18103 8.98492C4.18103 8.98492 4.79022 9.14576 4.78176 9.13404C5.01576 9.1917 5.11978 9.03979 5.16075 8.93897L6.08823 5.23399C6.09856 5.05905 6.03782 4.83869 5.7031 4.75523C5.7158 4.7463 5.10286 4.60656 5.10286 4.60656L5.32272 3.72733L6.9893 4.13858L7.3283 2.7862L8.15408 2.99158L7.82215 4.31724C8.04438 4.36741 8.26754 4.41852 8.48457 4.47245L8.81413 3.15524L9.64038 3.36063L9.30184 4.71347ZM7.32486 6.96944C7.88767 7.11866 9.11239 7.44336 9.32588 6.592C9.54365 5.72098 8.35381 5.45793 7.77123 5.32912C7.70524 5.31452 7.64693 5.30164 7.59945 5.28983L7.188 6.93387C7.2272 6.94354 7.27324 6.95577 7.32486 6.96944ZM6.68718 9.61643C7.36127 9.79401 8.83561 10.1823 9.07021 9.24424C9.31035 8.28505 7.88088 7.9656 7.1834 7.80969C7.10555 7.7923 7.03664 7.7769 6.98037 7.76291L6.52651 9.57485C6.5726 9.58625 6.62677 9.60052 6.68718 9.61643Z" fill="#F7931A"/>
</svg>
