<svg width="15" height="15" viewBox="0 0 15 15" fill="none" xmlns="http://www.w3.org/2000/svg">
<path d="M0.341232 4.47951H14.9232V14.9229H0.341232V4.47951Z" fill="#FCE3C3"/>
<path d="M14.9232 14.9229H0.0767517V4.87268H14.9232V14.9229ZM0.502665 14.4949H14.4973V5.30065H0.502665V14.4949Z" fill="#300604"/>
<path d="M15 15H0V4.79555H15V15H15ZM0.153514 14.8457H14.8465V4.9498H0.153514V14.8457ZM14.5741 14.572H0.425935V5.22352H14.5741L14.5741 14.572ZM0.579449 14.4178H14.4206V5.37778H0.579449V14.4178Z" fill="#300604"/>
<path d="M0.289734 2.04428H14.7103V5.08667H0.289734V2.04428Z" fill="#300604"/>
<path d="M14.787 5.16381H0.212982V1.96715H14.7871V5.16381H14.787ZM0.366496 5.00956H14.6336V2.1214H0.366496V5.00956Z" fill="#300604"/>
<path d="M14.9232 5.30066H0.0767517V1.83032H14.9232V5.30066ZM0.502665 4.87269H14.4973V2.25832H0.502665V4.87269Z" fill="#300604"/>
<path d="M15 5.37778H0V1.7532H15V5.37778H15ZM0.153514 5.22352H14.8465V1.90746H0.153514V5.22352ZM14.5741 4.94981H0.425935V2.18118H14.5741L14.5741 4.94981ZM0.579449 4.79555H14.4206V2.33543H0.579449V4.79555Z" fill="#300604"/>
<path d="M11.0905 0.214005H12.4814V3.8031H11.0905V0.214005Z" fill="#ED8F27"/>
<path d="M12.6944 4.01709H10.8775V0H12.6944V4.01709ZM11.3034 3.58912H12.2685V0.427972H11.3034V3.58912Z" fill="#300604"/>
<path d="M2.51859 0.214005H3.90955V3.8031H2.51859V0.214005Z" fill="#ED8F27"/>
<path d="M4.12251 4.01709H2.30563V0H4.12251V4.01709ZM2.73154 3.58912H3.6966V0.427972H2.73154V3.58912Z" fill="#300604"/>
<path d="M11.4382 6.3446H12.8987V7.81217H11.4382V6.3446Z" fill="#B12800"/>
<path d="M11.4382 9.16401H12.8987V10.6316H11.4382V9.16401ZM11.4382 11.9834H12.8987V13.451H11.4382V11.9834ZM8.32593 6.3446H9.78644V7.81217H8.32593V6.3446Z" fill="#228E9D"/>
<path d="M8.32593 9.16402H9.78644V10.6316H8.32593V9.16402Z" fill="#B12800"/>
<path d="M8.32593 11.9834H9.78644V13.451H8.32593V11.9834ZM5.21361 6.3446H6.67414V7.81217H5.21361V6.3446Z" fill="#228E9D"/>
<path d="M5.21361 9.16402H6.67414V10.6316H5.21361V9.16402Z" fill="#B12800"/>
<path d="M5.21359 11.9834H6.67412V13.451H5.21359V11.9834ZM2.10129 9.16402H3.56182V10.6316H2.10129V9.16402Z" fill="#228E9D"/>
<path d="M2.10129 11.9834H3.56182V13.451H2.10129V11.9834Z" fill="#B12800"/>
</svg>
