<svg width="12" height="15" viewBox="0 0 12 15" fill="none" xmlns="http://www.w3.org/2000/svg">
<mask id="path-1-inside-1_24_6" fill="white">
<path d="M5.67844 0C2.60391 0 0 2.61891 0 5.72062C0 8.96906 3.01828 12.2911 5.04844 14.6259C5.05641 14.6353 5.38453 14.9995 5.78859 14.9995H5.82422C6.22875 14.9995 6.55453 14.6353 6.5625 14.6259C8.4675 12.4359 11.25 8.82422 11.25 5.72062C11.25 2.61844 9.21891 0 5.67844 0ZM5.86641 13.9969C5.85 14.0133 5.82609 14.0316 5.805 14.047C5.78344 14.032 5.76 14.0133 5.74266 13.9969L5.4975 13.7147C3.57281 11.5069 0.937031 8.48297 0.937031 5.72016C0.937031 3.12703 3.10828 0.936563 5.67797 0.936563C8.87906 0.936563 10.312 3.33891 10.312 5.72016C10.312 7.81734 8.81625 10.6027 5.86641 13.9969ZM5.64141 2.83828C4.08844 2.83828 2.82891 4.09734 2.82891 5.65078C2.82891 7.20422 4.08844 8.46328 5.64141 8.46328C7.19437 8.46328 8.45391 7.20375 8.45391 5.65078C8.45391 4.09781 7.19484 2.83828 5.64141 2.83828ZM5.64141 7.52578C4.60734 7.52578 3.74484 6.66422 3.74484 5.63016C3.74484 4.59609 4.58578 3.75516 5.61984 3.75516C6.65438 3.75516 7.49484 4.59609 7.49484 5.63016C7.49531 6.66422 6.67594 7.52578 5.64141 7.52578Z"/>
</mask>
<path d="M5.67844 0C2.60391 0 0 2.61891 0 5.72062C0 8.96906 3.01828 12.2911 5.04844 14.6259C5.05641 14.6353 5.38453 14.9995 5.78859 14.9995H5.82422C6.22875 14.9995 6.55453 14.6353 6.5625 14.6259C8.4675 12.4359 11.25 8.82422 11.25 5.72062C11.25 2.61844 9.21891 0 5.67844 0ZM5.86641 13.9969C5.85 14.0133 5.82609 14.0316 5.805 14.047C5.78344 14.032 5.76 14.0133 5.74266 13.9969L5.4975 13.7147C3.57281 11.5069 0.937031 8.48297 0.937031 5.72016C0.937031 3.12703 3.10828 0.936563 5.67797 0.936563C8.87906 0.936563 10.312 3.33891 10.312 5.72016C10.312 7.81734 8.81625 10.6027 5.86641 13.9969ZM5.64141 2.83828C4.08844 2.83828 2.82891 4.09734 2.82891 5.65078C2.82891 7.20422 4.08844 8.46328 5.64141 8.46328C7.19437 8.46328 8.45391 7.20375 8.45391 5.65078C8.45391 4.09781 7.19484 2.83828 5.64141 2.83828ZM5.64141 7.52578C4.60734 7.52578 3.74484 6.66422 3.74484 5.63016C3.74484 4.59609 4.58578 3.75516 5.61984 3.75516C6.65438 3.75516 7.49484 4.59609 7.49484 5.63016C7.49531 6.66422 6.67594 7.52578 5.64141 7.52578Z" fill="black"/>
<path d="M5.04844 14.6259L5.81042 13.9782L5.80307 13.9698L5.04844 14.6259ZM6.5625 14.6259L5.80796 13.9696L5.80056 13.9783L6.5625 14.6259ZM5.86641 13.9969L6.57351 14.704L6.59825 14.6792L6.62119 14.6528L5.86641 13.9969ZM5.805 14.047L5.23394 14.8679L5.82033 15.2759L6.39636 14.8534L5.805 14.047ZM5.74266 13.9969L4.98775 14.6527L5.01987 14.6897L5.05546 14.7233L5.74266 13.9969ZM5.4975 13.7147L6.2524 13.0589L6.25128 13.0576L5.4975 13.7147ZM7.49484 5.63016L6.49484 5.63016L6.49484 5.63061L7.49484 5.63016ZM5.67844 -1C2.04515 -1 -1 2.07312 -1 5.72062H1C1 3.16469 3.16267 1 5.67844 1V-1ZM-1 5.72062C-1 7.63823 -0.117393 9.48168 0.928196 11.0666C1.98122 12.6627 3.29437 14.1327 4.29381 15.2821L5.80307 13.9698C4.77235 12.7844 3.56128 11.4259 2.59762 9.96519C1.62653 8.49324 1 7.05146 1 5.72062H-1ZM4.2865 15.2736C4.33525 15.3309 4.48259 15.4878 4.70169 15.6391C4.91218 15.7845 5.29629 15.9995 5.78859 15.9995V13.9995C5.81337 13.9995 5.83289 14.0023 5.84602 14.0051C5.85891 14.0078 5.86624 14.0105 5.86774 14.0111C5.86923 14.0117 5.86688 14.0109 5.86091 14.0076C5.855 14.0044 5.84733 13.9997 5.83827 13.9934C5.82928 13.9872 5.82029 13.9804 5.81176 13.9734C5.80327 13.9665 5.79621 13.9602 5.79104 13.9554C5.78588 13.9506 5.78336 13.948 5.78397 13.9487C5.78428 13.949 5.78568 13.9504 5.78821 13.9532C5.78945 13.9545 5.79131 13.9565 5.79371 13.9592C5.7949 13.9605 5.79658 13.9624 5.79865 13.9648C5.79969 13.9659 5.80109 13.9675 5.80276 13.9694C5.80422 13.9711 5.80696 13.9743 5.81038 13.9783L4.2865 15.2736ZM5.78859 15.9995H5.82422V13.9995H5.78859V15.9995ZM5.82422 15.9995C6.31709 15.9995 6.70103 15.7842 6.91188 15.638C7.13166 15.4856 7.27788 15.3284 7.32444 15.2736L5.80056 13.9783C5.80355 13.9748 5.80595 13.972 5.80727 13.9705C5.80876 13.9688 5.81002 13.9673 5.81097 13.9662C5.81286 13.9641 5.81441 13.9624 5.81553 13.9611C5.81781 13.9586 5.81957 13.9566 5.82079 13.9553C5.82326 13.9526 5.82464 13.9512 5.82498 13.9508C5.82564 13.9501 5.82323 13.9527 5.81822 13.9573C5.8132 13.962 5.80633 13.9682 5.79806 13.9749C5.78974 13.9818 5.78099 13.9884 5.77226 13.9945C5.76346 14.0006 5.75606 14.0051 5.75043 14.0082C5.74474 14.0113 5.74267 14.012 5.74442 14.0113C5.74674 14.0104 5.77509 13.9995 5.82422 13.9995V15.9995ZM7.31699 15.2822C8.28524 14.1691 9.50126 12.6672 10.4793 11.0283C11.4445 9.41101 12.25 7.54315 12.25 5.72062H10.25C10.25 7.00169 9.66421 8.49149 8.76192 10.0034C7.87249 11.4938 6.74476 12.8927 5.80801 13.9696L7.31699 15.2822ZM12.25 5.72062C12.25 3.95513 11.6712 2.27408 10.5309 1.02327C9.37929 -0.239866 7.71196 -1 5.67844 -1V1C7.18538 1 8.30384 1.54908 9.05291 2.37072C9.81322 3.20467 10.25 4.38393 10.25 5.72062H12.25ZM5.1593 13.2898C5.1747 13.2744 5.18724 13.2631 5.19483 13.2565C5.20273 13.2496 5.20866 13.2447 5.21172 13.2423C5.21721 13.2379 5.21902 13.2367 5.21364 13.2406L6.39636 14.8534C6.41526 14.8396 6.49664 14.7808 6.57351 14.704L5.1593 13.2898ZM6.37606 13.2261C6.38524 13.2325 6.39237 13.2379 6.39848 13.2428C6.40404 13.2473 6.41496 13.2563 6.42986 13.2704L5.05546 14.7233C5.11469 14.7794 5.1782 14.8292 5.23394 14.8679L6.37606 13.2261ZM6.49756 13.341L6.2524 13.0589L4.7426 14.3705L4.98775 14.6527L6.49756 13.341ZM6.25128 13.0576C5.28127 11.9449 4.18806 10.6883 3.33276 9.37873C2.46602 8.05163 1.93703 6.80653 1.93703 5.72016H-0.0629687C-0.0629687 7.39659 0.725937 9.04486 1.65826 10.4724C2.60201 11.9174 3.78904 13.2767 4.74371 14.3718L6.25128 13.0576ZM1.93703 5.72016C1.93703 3.6709 3.66895 1.93656 5.67797 1.93656V-0.0634375C2.54761 -0.0634375 -0.0629687 2.58317 -0.0629687 5.72016H1.93703ZM5.67797 1.93656C7.00307 1.93656 7.87493 2.4215 8.43132 3.0805C9.00884 3.76453 9.31203 4.71735 9.31203 5.72016H11.312C11.312 4.34171 10.8987 2.90273 9.9595 1.79028C8.99914 0.652802 7.55396 -0.0634375 5.67797 -0.0634375V1.93656ZM9.31203 5.72016C9.31203 6.54127 9.01506 7.59451 8.31444 8.89896C7.61829 10.1951 6.55665 11.6782 5.11162 13.3409L6.62119 14.6528C8.12601 12.9213 9.28718 11.3147 10.0764 9.8453C10.8611 8.38424 11.312 6.99623 11.312 5.72016H9.31203ZM5.64141 1.83828C3.53626 1.83828 1.82891 3.54495 1.82891 5.65078H3.82891C3.82891 4.64974 4.64061 3.83828 5.64141 3.83828V1.83828ZM1.82891 5.65078C1.82891 7.75661 3.53626 9.46328 5.64141 9.46328V7.46328C4.64061 7.46328 3.82891 6.65183 3.82891 5.65078H1.82891ZM5.64141 9.46328C7.74666 9.46328 9.45391 7.75603 9.45391 5.65078H7.45391C7.45391 6.65147 6.64209 7.46328 5.64141 7.46328V9.46328ZM9.45391 5.65078C9.45391 3.54564 7.74724 1.83828 5.64141 1.83828V3.83828C6.64245 3.83828 7.45391 4.64999 7.45391 5.65078H9.45391ZM5.64141 6.52578C5.15899 6.52578 4.74484 6.11129 4.74484 5.63016H2.74484C2.74484 7.21714 4.0557 8.52578 5.64141 8.52578V6.52578ZM4.74484 5.63016C4.74484 5.14838 5.13807 4.75516 5.61984 4.75516V2.75516C4.0335 2.75516 2.74484 4.04381 2.74484 5.63016H4.74484ZM5.61984 4.75516C6.10193 4.75516 6.49484 5.14822 6.49484 5.63016H8.49484C8.49484 4.04397 7.20682 2.75516 5.61984 2.75516V4.75516ZM6.49484 5.63061C6.49508 6.14131 6.09482 6.52578 5.64141 6.52578V8.52578C7.25705 8.52578 8.49555 7.18713 8.49484 5.6297L6.49484 5.63061Z" fill="black" mask="url(#path-1-inside-1_24_6)"/>
</svg>
