<svg width="15" height="12" viewBox="0 0 15 12" fill="none" xmlns="http://www.w3.org/2000/svg">
<path d="M0.227112 2.70823C-0.0534763 2.95306 -0.0773541 3.37328 0.17378 3.64683C0.424908 3.92038 0.855953 3.94365 1.13653 3.69882L0.227112 2.70823ZM13.8635 3.69882C14.144 3.94365 14.5751 3.92038 14.8262 3.64683C15.0774 3.37328 15.0535 2.95306 14.7729 2.70823L13.8635 3.69882ZM7.5 9.97059C7.12343 9.97059 6.81818 10.2682 6.81818 10.6353C6.81818 11.0024 7.12343 11.3 7.5 11.3V9.97059ZM7.50682 11.3C7.88339 11.3 8.18864 11.0024 8.18864 10.6353C8.18864 10.2682 7.88339 9.97059 7.50682 9.97059V11.3ZM9.33443 8.66777C9.61296 8.91477 10.0442 8.89489 10.2976 8.62336C10.551 8.35176 10.5305 7.9314 10.252 7.68433L9.33443 8.66777ZM11.6277 6.20855C11.9062 6.45556 12.3374 6.43568 12.5908 6.16408C12.8442 5.89255 12.8238 5.47212 12.5452 5.22512L11.6277 6.20855ZM4.74799 7.68433C4.46944 7.9314 4.44903 8.35176 4.70241 8.62336C4.9558 8.89489 5.38701 8.91477 5.66557 8.66777L4.74799 7.68433ZM2.45478 5.22512C2.17622 5.47212 2.15581 5.89255 2.4092 6.16408C2.66258 6.43568 3.09379 6.45556 3.37235 6.20855L2.45478 5.22512ZM1.13653 3.69882C2.82576 2.22488 5.05481 1.32941 7.5 1.32941V0C4.70642 0 2.15668 1.02456 0.227112 2.70823L1.13653 3.69882ZM7.5 1.32941C9.9452 1.32941 12.1743 2.22488 13.8635 3.69882L14.7729 2.70823C12.8433 1.02456 10.2935 0 7.5 0V1.32941ZM7.5 11.3H7.50682V9.97059H7.5V11.3ZM7.5 7.97647C8.20684 7.97647 8.84952 8.23777 9.33443 8.66777L10.252 7.68433C9.52589 7.04043 8.55927 6.64706 7.5 6.64706V7.97647ZM7.5 4.65294C9.08993 4.65294 10.5372 5.24154 11.6277 6.20855L12.5452 5.22512C11.2136 4.0442 9.4423 3.32353 7.5 3.32353V4.65294ZM5.66557 8.66777C6.15048 8.23777 6.79316 7.97647 7.5 7.97647V6.64706C6.44073 6.64706 5.47413 7.04043 4.74799 7.68433L5.66557 8.66777ZM3.37235 6.20855C4.4628 5.24154 5.9101 4.65294 7.5 4.65294V3.32353C5.55769 3.32353 3.78644 4.0442 2.45478 5.22512L3.37235 6.20855Z" fill="black"/>
</svg>
